<?xml version="1.0" encoding="UTF-8" standalone="no"?>
<!-- Created with Inkscape (http://www.inkscape.org/) -->

<!--
   Copyright 2012 Hai Bison

   Licensed under the Apache License, Version 2.0 (the "License");
   you may not use this file except in compliance with the License.
   You may obtain a copy of the License at

       http://www.apache.org/licenses/LICENSE-2.0

   Unless required by applicable law or agreed to in writing, software
   distributed under the License is distributed on an "AS IS" BASIS,
   WITHOUT WARRANTIES OR CONDITIONS OF ANY KIND, either express or implied.
   See the License for the specific language governing permissions and
   limitations under the License.
-->

<svg
   xmlns:dc="http://purl.org/dc/elements/1.1/"
   xmlns:cc="http://creativecommons.org/ns#"
   xmlns:rdf="http://www.w3.org/1999/02/22-rdf-syntax-ns#"
   xmlns:svg="http://www.w3.org/2000/svg"
   xmlns="http://www.w3.org/2000/svg"
   xmlns:sodipodi="http://sodipodi.sourceforge.net/DTD/sodipodi-0.dtd"
   xmlns:inkscape="http://www.inkscape.org/namespaces/inkscape"
   width="256"
   height="256"
   id="svg2"
   version="1.1"
   inkscape:version="0.48.1 r9760"
   sodipodi:docname="code_lock.svg"
   inkscape:export-filename="/media/truecrypt64/projs/eclipse/android/library/LockPattern/res/drawable-xhdpi/btn_code_lock_default_holo.png"
   inkscape:export-xdpi="59.0625"
   inkscape:export-ydpi="59.0625">
  <defs
     id="defs4" />
  <sodipodi:namedview
     id="base"
     pagecolor="#ffffff"
     bordercolor="#666666"
     borderopacity="1.0"
     inkscape:pageopacity="0.0"
     inkscape:pageshadow="2"
     inkscape:zoom="1.4142136"
     inkscape:cx="10.80142"
     inkscape:cy="-33.798145"
     inkscape:document-units="px"
     inkscape:current-layer="layer4"
     showgrid="false"
     inkscape:window-width="1440"
     inkscape:window-height="832"
     inkscape:window-x="-3"
     inkscape:window-y="-3"
     inkscape:window-maximized="1" />
  <metadata
     id="metadata7">
    <rdf:RDF>
      <cc:Work
         rdf:about="">
        <dc:format>image/svg+xml</dc:format>
        <dc:type
           rdf:resource="http://purl.org/dc/dcmitype/StillImage" />
        <dc:title></dc:title>
      </cc:Work>
    </rdf:RDF>
  </metadata>
  <g
     inkscape:label="point_area_default_holo"
     inkscape:groupmode="layer"
     id="layer1"
     transform="translate(0,-796.36218)"
     style="display:none">
    <rect
       style="fill:#000000;fill-opacity:1;fill-rule:nonzero;stroke:#000000;stroke-width:5.82872677;stroke-linecap:round;stroke-linejoin:round;stroke-miterlimit:4;stroke-opacity:0.07843137;stroke-dasharray:none"
       id="rect3036"
       width="146.90393"
       height="153.4817"
       x="499.58038"
       y="659.78027"
       ry="2.2630522"
       transform="matrix(0.8660254,0.5,-0.5,0.8660254,0,0)" />
  </g>
  <g
     inkscape:groupmode="layer"
     id="layer2"
     inkscape:label="point_area_green_holo"
     style="display:none">
    <rect
       transform="matrix(0.8660254,0.5,-0.5,0.8660254,0,0)"
       ry="2.2630522"
       y="-29.889599"
       x="101.39928"
       height="153.4817"
       width="146.90393"
       id="rect3819"
       style="fill:#000000;fill-opacity:1;fill-rule:nonzero;stroke:#00ff00;stroke-width:20;stroke-linecap:round;stroke-linejoin:round;stroke-miterlimit:4;stroke-opacity:0.70588235;stroke-dasharray:none" />
  </g>
  <g
     inkscape:groupmode="layer"
     id="layer3"
     inkscape:label="point_area_red_holo"
     style="display:none">
    <rect
       style="fill:#000000;fill-opacity:1;fill-rule:nonzero;stroke:#ff0000;stroke-width:20;stroke-linecap:round;stroke-linejoin:round;stroke-miterlimit:4;stroke-opacity:0.70588235;stroke-dasharray:none"
       id="rect3844"
       width="146.90393"
       height="153.4817"
       x="101.39928"
       y="-29.889597"
       ry="2.2630522"
       transform="matrix(0.8660254,0.5,-0.5,0.8660254,0,0)" />
  </g>
  <g
     inkscape:groupmode="layer"
     id="layer5"
     inkscape:label="touched_holo"
     style="display:none">
    <path
       id="path3885"
       d="m 137.92187,112.94067 c -0.34127,0.0471 -0.6237,0.30151 -0.71875,0.65625 l -2.65625,9.9375 c -0.60083,-0.14443 -1.22785,-0.27661 -1.84375,-0.375 -5.86621,-0.93712 -11.54766,0.3482 -16.24999,3.21875 l -5.59375,-8.34375 c -0.27167,-0.40507 -0.87059,-0.64954 -1.34375,-0.53125 l -0.125,0.0312 c -0.47317,0.11829 -0.61542,0.56368 -0.34375,0.96875 l 5.78125,8.625 c 0.0509,0.076 0.1165,0.12495 0.1875,0.1875 -5.05747,3.60045 -8.72397,9.13531 -9.78125,15.75 l 45.53124,-6.125 c -2.82534,-6.22025 -8.12904,-10.89207 -14.53125,-12.9375 l 2.6875,-9.9375 c 0.12674,-0.47299 -0.15201,-0.96701 -0.625,-1.09375 -0.11825,-0.0317 -0.26123,-0.047 -0.375,-0.0312 z m -5.9375,16.34375 c 0.37528,-0.0591 0.79209,0.0432 1.125,0.28125 0.66562,0.4931 0.8056,1.42813 0.3125,2.09375 -0.4931,0.66562 -1.42813,0.8056 -2.09375,0.3125 -0.66562,-0.4931 -0.8056,-1.42813 -0.3125,-2.09375 0.24363,-0.32886 0.59347,-0.53465 0.96875,-0.59375 z m -11.99999,2 c 0.37528,-0.0591 0.79209,0.0432 1.125,0.28125 0.66562,0.4931 0.80559,1.42813 0.3125,2.
09375 -0.4931,0.66562 -1.42813,0.8056 -2.09375,0.3125 -0.66563,-0.4931 -0.8056,-1.42813 -0.3125,-2.09375 0.24362,-0.32886 0.59346,-0.53465 0.96875,-0.59375 z"
       style="fill:#00ff00;fill-opacity:1;fill-rule:nonzero;stroke:none"
       inkscape:connector-curvature="0" />
  </g>
  <g
     inkscape:groupmode="layer"
     id="layer4"
     inkscape:label="default_holo"
     style="display:inline">
    <path
       style="fill:#ffffff;fill-opacity:1;fill-rule:nonzero;stroke:none"
       d="m 137.92187,112.94065 c -0.34127,0.0471 -0.6237,0.30151 -0.71875,0.65625 l -2.65625,9.9375 c -0.60083,-0.14443 -1.22785,-0.27661 -1.84375,-0.375 -5.86621,-0.93712 -11.54766,0.3482 -16.24999,3.21875 l -5.59375,-8.34375 c -0.27167,-0.40507 -0.87059,-0.64954 -1.34375,-0.53125 l -0.125,0.0312 c -0.47317,0.11829 -0.61542,0.56368 -0.34375,0.96875 l 5.78125,8.625 c 0.0509,0.076 0.1165,0.12495 0.1875,0.1875 -5.05747,3.60045 -8.72397,9.13531 -9.78125,15.75 l 45.53124,-6.125 c -2.82534,-6.22025 -8.12904,-10.89207 -14.53125,-12.9375 l 2.6875,-9.9375 c 0.12674,-0.47299 -0.15201,-0.96701 -0.625,-1.09375 -0.11825,-0.0317 -0.26123,-0.0469 -0.375,-0.0312 z m -5.9375,16.34375 c 0.37528,-0.0591 0.79209,0.0432 1.125,0.28125 0.66562,0.4931 0.8056,1.42813 0.3125,2.09375 -0.4931,0.66562 -1.42813,0.8056 -2.09375,0.3125 -0.66562,-0.4931 -0.8056,-1.42813 -0.3125,-2.09375 0.24363,-0.32886 0.59347,-0.53465 0.96875,-0.59375 z m -11.99999,2 c 0.37528,-0.0591 0.79209,0.0432 1.125,0.28125 0.66562,0.4931 0.80559,1.42813 0.3125,2.
09375 -0.4931,0.66562 -1.42813,0.8056 -2.09375,0.3125 -0.66563,-0.4931 -0.8056,-1.42813 -0.3125,-2.09375 0.24362,-0.32886 0.59346,-0.53465 0.96875,-0.59375 z"
       id="path3866"
       inkscape:connector-curvature="0" />
  </g>
</svg>
