<?xml version="1.0" encoding="UTF-8" standalone="no"?>
<!-- Created with Inkscape (http://www.inkscape.org/) -->

<!--
   Copyright 2012 Hai Bison

   Licensed under the Apache License, Version 2.0 (the "License");
   you may not use this file except in compliance with the License.
   You may obtain a copy of the License at

       http://www.apache.org/licenses/LICENSE-2.0

   Unless required by applicable law or agreed to in writing, software
   distributed under the License is distributed on an "AS IS" BASIS,
   WITHOUT WARRANTIES OR CONDITIONS OF ANY KIND, either express or implied.
   See the License for the specific language governing permissions and
   limitations under the License.
-->

<svg
   xmlns:dc="http://purl.org/dc/elements/1.1/"
   xmlns:cc="http://creativecommons.org/ns#"
   xmlns:rdf="http://www.w3.org/1999/02/22-rdf-syntax-ns#"
   xmlns:svg="http://www.w3.org/2000/svg"
   xmlns="http://www.w3.org/2000/svg"
   xmlns:sodipodi="http://sodipodi.sourceforge.net/DTD/sodipodi-0.dtd"
   xmlns:inkscape="http://www.inkscape.org/namespaces/inkscape"
   width="120"
   height="120"
   id="svg2"
   version="1.1"
   inkscape:version="0.48.4 r9939"
   sodipodi:docname="ic_action_lockpattern.svg"
   inkscape:export-filename="/media/truecrypt64/projs/android/co.pmdd/BlueSwords/resources/images/ic_action_lockpattern_96.png"
   inkscape:export-xdpi="72"
   inkscape:export-ydpi="72">
  <defs
     id="defs4" />
  <sodipodi:namedview
     id="base"
     pagecolor="#ffffff"
     bordercolor="#666666"
     borderopacity="1.0"
     inkscape:pageopacity="0.0"
     inkscape:pageshadow="2"
     inkscape:zoom="1.979899"
     inkscape:cx="113.34383"
     inkscape:cy="21.109732"
     inkscape:document-units="px"
     inkscape:current-layer="layer3"
     showgrid="true"
     inkscape:window-width="1440"
     inkscape:window-height="848"
     inkscape:window-x="0"
     inkscape:window-y="27"
     inkscape:window-maximized="1">
    <inkscape:grid
       type="xygrid"
       id="grid3774"
       empspacing="5"
       visible="true"
       enabled="true"
       snapvisiblegridlinesonly="true" />
  </sodipodi:namedview>
  <metadata
     id="metadata7">
    <rdf:RDF>
      <cc:Work
         rdf:about="">
        <dc:format>image/svg+xml</dc:format>
        <dc:type
           rdf:resource="http://purl.org/dc/dcmitype/StillImage" />
        <dc:title></dc:title>
      </cc:Work>
    </rdf:RDF>
  </metadata>
  <g
     inkscape:label="dots"
     inkscape:groupmode="layer"
     id="layer1"
     transform="translate(0,-932.36218)"
     sodipodi:insensitive="true">
    <path
       sodipodi:type="arc"
       style="fill:#0000ff;fill-opacity:0.8;stroke:#333333;stroke-width:9;stroke-linecap:round;stroke-linejoin:round;stroke-miterlimit:4;stroke-opacity:1;stroke-dasharray:none"
       id="path3776"
       sodipodi:cx="7.5"
       sodipodi:cy="12.5"
       sodipodi:rx="2.5"
       sodipodi:ry="2.5"
       d="m 10,12.5 a 2.5,2.5 0 1 1 -5,0 2.5,2.5 0 1 1 5,0 z"
       transform="matrix(1.4285714,0,0,1.4285714,14.285714,1009.505)" />
    <path
       transform="matrix(1.4285714,0,0,1.4285714,84.285714,1009.505)"
       d="m 10,12.5 a 2.5,2.5 0 1 1 -5,0 2.5,2.5 0 1 1 5,0 z"
       sodipodi:ry="2.5"
       sodipodi:rx="2.5"
       sodipodi:cy="12.5"
       sodipodi:cx="7.5"
       id="path3794"
       style="fill:#0000ff;fill-opacity:0.8;stroke:#333333;stroke-width:9;stroke-linecap:round;stroke-linejoin:round;stroke-miterlimit:4;stroke-opacity:1;stroke-dasharray:none"
       sodipodi:type="arc" />
    <path
       sodipodi:type="arc"
       style="fill:#0000ff;fill-opacity:0.8;stroke:#333333;stroke-width:9;stroke-linecap:round;stroke-linejoin:round;stroke-miterlimit:4;stroke-opacity:1;stroke-dasharray:none"
       id="path3796"
       sodipodi:cx="7.5"
       sodipodi:cy="12.5"
       sodipodi:rx="2.5"
       sodipodi:ry="2.5"
       d="m 10,12.5 a 2.5,2.5 0 1 1 -5,0 2.5,2.5 0 1 1 5,0 z"
       transform="matrix(1.4285714,0,0,1.4285714,14.285714,974.50504)" />
    <path
       transform="matrix(1.4285714,0,0,1.4285714,49.285714,1009.505)"
       d="m 10,12.5 a 2.5,2.5 0 1 1 -5,0 2.5,2.5 0 1 1 5,0 z"
       sodipodi:ry="2.5"
       sodipodi:rx="2.5"
       sodipodi:cy="12.5"
       sodipodi:cx="7.5"
       id="path3798"
       style="fill:#0000ff;fill-opacity:0.8;stroke:#333333;stroke-width:9;stroke-linecap:round;stroke-linejoin:round;stroke-miterlimit:4;stroke-opacity:1;stroke-dasharray:none"
       sodipodi:type="arc" />
    <path
       sodipodi:type="arc"
       style="fill:#0000ff;fill-opacity:0.8;stroke:#333333;stroke-width:9;stroke-linecap:round;stroke-linejoin:round;stroke-miterlimit:4;stroke-opacity:1;stroke-dasharray:none"
       id="path3800"
       sodipodi:cx="7.5"
       sodipodi:cy="12.5"
       sodipodi:rx="2.5"
       sodipodi:ry="2.5"
       d="m 10,12.5 a 2.5,2.5 0 1 1 -5,0 2.5,2.5 0 1 1 5,0 z"
       transform="matrix(1.4285714,0,0,1.4285714,84.285714,974.50504)" />
    <path
       transform="matrix(1.4285714,0,0,1.4285714,49.285714,974.50504)"
       d="m 10,12.5 a 2.5,2.5 0 1 1 -5,0 2.5,2.5 0 1 1 5,0 z"
       sodipodi:ry="2.5"
       sodipodi:rx="2.5"
       sodipodi:cy="12.5"
       sodipodi:cx="7.5"
       id="path3802"
       style="fill:#0000ff;fill-opacity:0.8;stroke:#333333;stroke-width:9;stroke-linecap:round;stroke-linejoin:round;stroke-miterlimit:4;stroke-opacity:1;stroke-dasharray:none"
       sodipodi:type="arc" />
    <path
       sodipodi:type="arc"
       style="fill:#0000ff;fill-opacity:0.8;stroke:#333333;stroke-width:9;stroke-linecap:round;stroke-linejoin:round;stroke-miterlimit:4;stroke-opacity:1;stroke-dasharray:none"
       id="path3804"
       sodipodi:cx="7.5"
       sodipodi:cy="12.5"
       sodipodi:rx="2.5"
       sodipodi:ry="2.5"
       d="m 10,12.5 a 2.5,2.5 0 1 1 -5,0 2.5,2.5 0 1 1 5,0 z"
       transform="matrix(1.4285714,0,0,1.4285714,84.285714,939.50504)" />
    <path
       transform="matrix(1.4285714,0,0,1.4285714,49.285714,939.50504)"
       d="m 10,12.5 a 2.5,2.5 0 1 1 -5,0 2.5,2.5 0 1 1 5,0 z"
       sodipodi:ry="2.5"
       sodipodi:rx="2.5"
       sodipodi:cy="12.5"
       sodipodi:cx="7.5"
       id="path3806"
       style="fill:#0000ff;fill-opacity:0.8;stroke:#333333;stroke-width:9;stroke-linecap:round;stroke-linejoin:round;stroke-miterlimit:4;stroke-opacity:1;stroke-dasharray:none"
       sodipodi:type="arc" />
    <path
       sodipodi:type="arc"
       style="fill:#0000ff;fill-opacity:0.8;stroke:#333333;stroke-width:9;stroke-linecap:round;stroke-linejoin:round;stroke-miterlimit:4;stroke-opacity:1;stroke-dasharray:none"
       id="path3808"
       sodipodi:cx="7.5"
       sodipodi:cy="12.5"
       sodipodi:rx="2.5"
       sodipodi:ry="2.5"
       d="m 10,12.5 a 2.5,2.5 0 1 1 -5,0 2.5,2.5 0 1 1 5,0 z"
       transform="matrix(1.4285714,0,0,1.4285714,14.285714,939.50504)" />
  </g>
  <g
     inkscape:groupmode="layer"
     id="layer2"
     inkscape:label="lines"
     sodipodi:insensitive="true"
     style="display:none">
    <path
       style="fill:none;stroke:#333333;stroke-width:5;stroke-linecap:round;stroke-linejoin:round;stroke-miterlimit:4;stroke-opacity:1;stroke-dasharray:none"
       d="M 60,20 100,60 60,100 20,60 z"
       id="path3811"
       inkscape:connector-curvature="0" />
  </g>
  <g
     inkscape:groupmode="layer"
     id="layer3"
     inkscape:label="lines #2"
     sodipodi:insensitive="true">
    <path
       style="fill:none;stroke:#333333;stroke-width:5;stroke-linecap:round;stroke-linejoin:round;stroke-miterlimit:4;stroke-opacity:1;stroke-dasharray:none"
       d="M 60,25 25,60 60,95 95,60 60,60"
       id="path3823"
       inkscape:connector-curvature="0" />
  </g>
</svg>
